<svg xmlns="http://www.w3.org/2000/svg" xmlns:xlink="http://www.w3.org/1999/xlink" version="1.1" x="0px" y="0px" viewBox="0 0 100 125" enable-background="new 0 0 100 100" xml:space="preserve"><path d="M82.176,36.962c-0.524-0.362-1.12-0.606-1.696-0.843c-0.878-0.361-1.708-0.702-2.182-1.407  c-0.598-0.891-0.597-2.05-0.596-3.277c0.001-1.414,0.003-2.875-0.904-4.104c-0.45-0.609-1-1.085-1.533-1.545  c-0.499-0.431-0.97-0.839-1.358-1.343c-0.937-1.221-1.802-2.166-3.579-2.077c-0.31,0.012-0.579,0.046-0.82,0.077  c-0.786,0.101-0.973,0.123-1.447-0.69c-0.228-0.392-0.395-0.901-0.572-1.44c-0.341-1.04-0.727-2.218-1.712-2.833  c-1.09-0.679-2.255-0.617-3.284-0.563c-1.249,0.065-2.329,0.123-3.258-0.992c-1.926-2.309-4.833-2.922-7.868-1.738  c-0.034-0.046-0.073-0.094-0.105-0.139c-0.493-0.68-1.003-1.384-2.074-1.797c-1.107-0.428-2.404-0.619-3.549-0.787l-0.586-0.088  c-1.53-0.236-2.926-0.132-4.149,0.309c-0.339,0.122-0.713,0.296-1.104,0.479c-0.883,0.413-1.883,0.881-2.585,0.729  c-0.156-0.034-0.289-0.118-0.457-0.224c-0.267-0.169-0.6-0.379-1.113-0.42c-1.055-0.084-1.756,0.305-2.351,0.738  c-1.103,0.801-1.632,1.975-2.143,3.109c-0.222,0.493-0.452,1.002-0.723,1.459c-0.404,0.681-0.89,0.879-1.505,1.13  c-0.547,0.223-1.167,0.476-1.706,1.115c-0.282,0.335-0.373,0.68-0.445,0.957c-0.046,0.177-0.086,0.331-0.169,0.459  c-0.213,0.331-0.55,0.579-0.907,0.842c-0.43,0.317-0.875,0.645-1.18,1.159c-0.156,0.264-0.317,0.704-0.521,1.26  c-0.429,1.172-1.148,3.135-1.978,3.399c-0.121,0.039-0.32,0.066-0.636-0.151l-0.364-0.25l-0.293,0.331  c-0.768,0.867-0.742,1.957-0.72,2.917c0.009,0.387,0.018,0.753-0.021,1.091c-0.086,0.753-0.461,1.421-0.858,2.127  c-0.465,0.828-0.945,1.684-1.022,2.763c-0.063,0.876,0.11,1.625,0.276,2.35c0.226,0.979,0.42,1.825,0.028,2.88  c-0.176,0.473-0.373,0.934-0.568,1.393c-0.717,1.683-1.458,3.423-1.077,5.511c0.185,1.013,0.713,1.723,1.224,2.409  c0.202,0.271,0.407,0.545,0.593,0.845c0.355,0.572,0.322,1.081,0.284,1.669c-0.036,0.557-0.077,1.187,0.265,1.839  c0.369,0.704,0.888,1.009,1.305,1.254c0.509,0.299,0.789,0.464,0.799,1.28c0.002,0.197-0.032,0.401-0.064,0.608  c-0.074,0.473-0.159,1.01,0.06,1.562c0.192,0.486,0.554,0.83,0.874,1.132c0.215,0.204,0.419,0.397,0.556,0.613  c0.798,1.258,0.66,2.282,0.501,3.469c-0.11,0.822-0.225,1.671-0.046,2.66c0.646,3.587,5.159,5.545,7.852,5.936  c0.377,0.055,0.713,0.08,1.021,0.08c1.129,0,1.874-0.336,2.825-0.766c0.253-0.114,0.527-0.238,0.832-0.366  c0.471-0.198,0.897-0.212,1.391-0.229c0.368-0.013,0.75-0.029,1.172-0.12c0.527,1.825,1.433,3.917,2.805,6.404  c1.186,2.15,2.496,3.653,5.036,3.998c0.466,0.063,0.932,0.087,1.396,0.087c0.765,0,1.525-0.066,2.269-0.13  c1.077-0.093,2.093-0.18,3.099-0.083l0.213,0.021c2.064,0.204,4.895,0.483,6.473-1.418c0.877-1.056,1.44-2.537,1.984-3.969  c0.246-0.646,0.478-1.257,0.726-1.79c0.146-0.314,0.321-0.656,0.504-1.016c0.507-0.993,1.091-2.151,1.369-3.29  c1.892,1.005,3.738,1.755,4.195,1.824c0.411,0.061,0.806,0.092,1.186,0.092c1.432,0,2.643-0.435,3.611-1.299  c2.328-2.078,2.762-6.283,2.69-9.603c0.099-0.007,0.201-0.009,0.311-0.01c0.196-0.002,0.396-0.006,0.61-0.038  c4.619-0.685,6.567-5.697,6.423-10.064c-0.042-1.3-0.271-2.604-0.68-3.874c-0.08-0.247-0.261-0.547-0.472-0.895  c-0.146-0.24-0.379-0.625-0.442-0.768c0.215-0.254,0.911-0.847,1.188-1.083c0.201-0.171,0.354-0.304,0.405-0.356l0.291-0.293  c0.492-0.492,1.049-1.049,1.385-1.695C86.021,41.085,84.3,38.425,82.176,36.962z M65.856,47.331  c-0.118,1.411-0.462,2.087-0.806,2.66c-0.913,1.521-0.783,3.348-0.777,5.05c0.012,3.172,1.04,8.082-2.767,9.472  c-0.038,0.014-0.141,0.083-0.229,0.13c-0.754,0.396-2.324,1.222-2.547,4.571c-0.231,3.473-2.555,6.869-3.168,7.158  c-0.938-0.004-8.101-0.128-9.541-0.248c-0.992-0.083-2.371-1.743-3.232-3.25c-0.333-0.582-0.984-3.813-1.316-5.713l-0.027-0.155  l-5.612-5.612c-0.817-0.817-0.714-6.122-0.376-9.759c0.693-0.54,3.293-2.564,3.835-2.997c0.382-0.306,0.843-1.079,1.564-2.316  c0.522-0.896,1.062-1.823,1.514-2.387c0.985-1.232,0.831-6.508,0.751-8.242c0.578-0.253,1.842-0.816,2.957-1.374  c1.28-0.64,2.094-3.171,2.447-4.525c1.497,1.206,3.134,1.816,4.877,1.815c1.39,0,2.533-0.38,3.29-0.631  c0.161-0.054,0.349-0.116,0.482-0.152c0.852,1.168,4.334,3.911,4.373,3.94c0.467,0.363,0.957,0.618,1.388,0.843  c0.388,0.202,0.919,0.479,0.919,0.638c0,0.216,0.01,0.422,0.021,0.663c0.029,0.593,0.068,1.406-0.021,3.187  c-0.091,1.819,0.271,2.414,0.655,3.043c0.178,0.292,0.346,0.568,0.496,1.015c0.157,0.473,0.314,0.837,0.454,1.16  C65.754,46,65.932,46.412,65.856,47.331z"/><path d="M22.017,27.877c0,0-1.788-0.587-0.955-2.921s1.917-1.25,1.917-1.25s-0.167-2.167-2.083-1.167s-3.417,4.166-2.667,5.583  s1.833,4.5,3.417,4.167s3.667-2.833,3.667-2.833L22.017,27.877z"/><path d="M17.229,40.373c0,0-4.333,4.917-1.417,7.25s5.667-0.666,6.167-1.333s0.25-3.667,0.25-3.667s-4.166,4.917-5.083,4  s-1.333-1.75-1-2.75S17.229,40.373,17.229,40.373z"/><path d="M50.729,62.503h-0.166c-0.555,0-2.071-0.603-2.523-0.787c-0.208-0.085-0.333-0.299-0.307-0.522  c0.448-3.758,1.139-9.931,1.083-10.502c-0.046-0.466-0.644-1.177-1.009-1.515c-0.203-0.188-0.215-0.504-0.028-0.707  c0.188-0.202,0.503-0.214,0.706-0.028c0.125,0.116,1.227,1.157,1.326,2.151c0.079,0.792-0.771,8.078-1.039,10.337  c0.763,0.297,1.584,0.572,1.792,0.572h0.166c0.172,0,0.779-0.24,1.389-0.542c-0.167-1.867-0.819-9.264-0.74-10.056  c0.099-0.994,1.2-2.036,1.326-2.151c0.204-0.186,0.52-0.173,0.706,0.028c0.187,0.203,0.175,0.519-0.028,0.707  c-0.365,0.338-0.962,1.049-1.009,1.515c-0.057,0.573,0.442,6.562,0.771,10.204c0.018,0.201-0.086,0.393-0.264,0.487  C52.521,61.885,51.308,62.503,50.729,62.503z"/><path d="M54.68,62.268c-0.049,0-0.099-0.007-0.148-0.022c-0.264-0.082-0.412-0.362-0.33-0.625c0.173-0.558-0.558-1.382-0.828-1.626  c-0.205-0.185-0.221-0.501-0.036-0.706c0.185-0.206,0.501-0.221,0.705-0.037c0.155,0.14,1.506,1.401,1.114,2.665  C55.091,62.13,54.893,62.268,54.68,62.268z"/><path d="M54.369,62.572c-0.138,0-0.276-0.057-0.375-0.169c-0.03-0.032-0.52-0.539-1.466-0.386c-0.279,0.044-0.53-0.142-0.574-0.414  c-0.044-0.273,0.141-0.529,0.414-0.574c1.528-0.244,2.345,0.676,2.379,0.716c0.181,0.208,0.157,0.524-0.052,0.705  C54.601,62.532,54.485,62.572,54.369,62.572z"/><path d="M46.19,62.477c-0.213,0-0.411-0.138-0.478-0.352c-0.394-1.27,1.007-2.532,1.168-2.671c0.208-0.181,0.523-0.158,0.705,0.05  c0.181,0.208,0.159,0.524-0.049,0.706c-0.352,0.307-1.028,1.108-0.869,1.62c0.082,0.264-0.066,0.544-0.33,0.625  C46.289,62.47,46.239,62.477,46.19,62.477z"/><path d="M46.501,62.568c-0.118,0-0.236-0.042-0.33-0.125c-0.205-0.182-0.228-0.491-0.049-0.697c0.034-0.04,0.85-0.965,2.379-0.716  c0.272,0.044,0.458,0.301,0.414,0.574c-0.044,0.272-0.298,0.458-0.574,0.414c-0.958-0.155-1.447,0.365-1.467,0.387  C46.775,62.512,46.638,62.568,46.501,62.568z"/><path d="M50.301,63.496c0,0-2.886-0.51-4.329,0.764s-2.546,2.547-5.093,3.226s-1.698,3.48-1.698,3.48l3.311-1.358  c0,0,2.886-2.122,3.48-2.886s1.188-1.613,2.207-1.698s2.122-0.085,2.122-0.085V63.496z"/><path d="M51.183,63.496c0,0,2.886-0.51,4.329,0.764s2.546,2.547,5.093,3.226s1.698,3.48,1.698,3.48l-3.311-1.358  c0,0-2.886-2.122-3.48-2.886s-1.188-1.613-2.207-1.698s-2.122-0.085-2.122-0.085V63.496z"/><path d="M54.417,69.31c-0.025,0-0.051-0.002-0.077-0.006c-0.273-0.042-0.46-0.297-0.418-0.57c0.025-0.179-0.003-0.488-0.104-0.539  c-0.4-0.168-3.533-0.336-5.676,0.105c-1.255,0.258-1.601,0.541-1.674,0.616c-0.044,0.204-0.214,0.367-0.434,0.392  c-0.272,0.028-0.522-0.168-0.552-0.442c-0.051-0.463,0.333-1.107,2.459-1.545c2.046-0.421,5.624-0.37,6.324-0.02  c0.652,0.326,0.712,1.15,0.646,1.586C54.873,69.133,54.66,69.31,54.417,69.31z"/><path d="M50.422,71.592c-1.032,0-2.001-0.118-2.323-0.162c-0.273-0.037-0.465-0.289-0.428-0.562  c0.037-0.274,0.295-0.465,0.562-0.429c1.442,0.195,3.732,0.261,4.305-0.205c0.215-0.173,0.53-0.141,0.704,0.073  c0.174,0.214,0.142,0.529-0.073,0.704C52.606,71.468,51.48,71.592,50.422,71.592z"/><path d="M55.365,50.442c-0.126,0-0.252-0.047-0.35-0.143c-0.197-0.193-0.201-0.51-0.008-0.707c1.411-1.441,2.92-2.146,4.527-2.115  c2.513,0.06,4.244,1.974,4.317,2.055c0.183,0.206,0.165,0.521-0.041,0.705c-0.206,0.183-0.521,0.167-0.706-0.04  c-0.015-0.017-1.528-1.676-3.603-1.721c-1.301-0.023-2.574,0.582-3.78,1.814C55.625,50.392,55.495,50.442,55.365,50.442z"/><path d="M59.51,51.06c-0.948,0-1.719-0.771-1.719-1.719s0.771-1.719,1.719-1.719s1.719,0.771,1.719,1.719S60.458,51.06,59.51,51.06z   M59.51,48.623c-0.396,0-0.719,0.322-0.719,0.719s0.322,0.719,0.719,0.719s0.719-0.322,0.719-0.719S59.907,48.623,59.51,48.623z"/><path d="M59.658,52.299c-1.462,0-2.766-0.653-2.848-0.695c-0.246-0.125-0.343-0.426-0.218-0.672  c0.125-0.246,0.424-0.345,0.672-0.219c0.026,0.014,2.552,1.271,4.087,0.054c0.216-0.173,0.53-0.136,0.702,0.081  c0.172,0.216,0.135,0.531-0.081,0.702C61.263,52.113,60.438,52.299,59.658,52.299z"/><path d="M37.908,49.858c-0.126,0-0.252-0.047-0.35-0.143c-0.197-0.193-0.201-0.51-0.008-0.707c1.411-1.441,2.914-2.145,4.527-2.115  c2.513,0.06,4.244,1.974,4.317,2.055c0.183,0.206,0.165,0.521-0.041,0.705c-0.206,0.183-0.521,0.166-0.706-0.04  c-0.015-0.017-1.528-1.676-3.603-1.721c-1.305-0.035-2.574,0.582-3.78,1.814C38.167,49.808,38.038,49.858,37.908,49.858z"/><path d="M42.053,50.477c-0.948,0-1.719-0.771-1.719-1.719s0.771-1.719,1.719-1.719s1.719,0.771,1.719,1.719S43,50.477,42.053,50.477  z M42.053,48.039c-0.396,0-0.719,0.322-0.719,0.719s0.322,0.719,0.719,0.719s0.719-0.322,0.719-0.719S42.449,48.039,42.053,48.039z"/><path d="M42.2,51.716c-1.462,0-2.766-0.653-2.848-0.695c-0.246-0.125-0.343-0.426-0.218-0.672c0.125-0.246,0.425-0.344,0.672-0.219  c0.026,0.014,2.552,1.271,4.087,0.054c0.215-0.173,0.53-0.136,0.702,0.081c0.172,0.216,0.135,0.531-0.081,0.702  C43.806,51.53,42.98,51.716,42.2,51.716z"/><path d="M64.306,47.8c0,0-0.938-0.938-2.69-1.188s-4.192-0.188-4.818,0s-2.065,0.751-2.252,0.5s-0.501-0.938-0.313-1.001  s2.502-0.939,3.128-1.001s3.441-0.188,3.817-0.125s2.252,0.312,2.628,0.5s1.125,0.563,1.188,0.938S64.306,47.8,64.306,47.8z"/><path d="M64.36,48.561l-0.406-0.406c-0.027-0.025-0.877-0.83-2.409-1.048c-0.722-0.104-1.633-0.16-2.566-0.16  c-1.07,0-1.806,0.075-2.038,0.144c-0.126,0.038-0.286,0.091-0.462,0.15c-0.736,0.246-1.331,0.434-1.729,0.434  c-0.337,0-0.515-0.143-0.605-0.263c-0.006-0.008-0.607-0.858-0.44-1.394l0.076-0.244l0.508-0.215  c1.202-0.439,2.501-0.895,3.021-0.947c0.643-0.064,3.549-0.187,3.949-0.121l0.329,0.05c1.306,0.194,2.124,0.338,2.44,0.496  c0.686,0.343,1.361,0.726,1.458,1.303c0.082,0.485-0.38,1.224-0.781,1.759L64.36,48.561z M58.979,45.946  c0.979,0,1.94,0.061,2.708,0.17c1.181,0.169,2.028,0.627,2.509,0.959c0.167-0.268,0.292-0.514,0.302-0.612  c-0.032-0.012-0.228-0.187-0.915-0.531c-0.17-0.081-0.89-0.216-2.142-0.402l-0.346-0.053c-0.062-0.009-0.193-0.01-0.368-0.01  c-0.903,0-2.832,0.091-3.317,0.14c-0.301,0.03-1.195,0.315-2.659,0.848c0.03,0.069,0.065,0.144,0.102,0.21  c0.328-0.045,0.93-0.247,1.308-0.373c0.188-0.062,0.358-0.119,0.492-0.16C57.23,45.959,58.579,45.946,58.979,45.946z"/><path d="M37.102,46.646c0,0,1.046-0.815,2.816-0.849s4.184,0.33,4.781,0.593c0.598,0.263,1.957,0.999,2.174,0.773  c0.217-0.225,0.613-0.869,0.434-0.955c-0.179-0.086-2.368-1.24-2.981-1.379c-0.613-0.139-3.392-0.609-3.772-0.593  c-0.38,0.016-2.273,0.033-2.669,0.173c-0.396,0.141-1.186,0.42-1.295,0.785C36.48,45.56,37.102,46.646,37.102,46.646z"/><path d="M46.735,47.706c-0.401,0-0.997-0.27-1.795-0.651c-0.168-0.081-0.321-0.154-0.442-0.207c-0.484-0.213-2.67-0.552-4.348-0.552  l-0.223,0.002c-1.564,0.029-2.511,0.737-2.52,0.745l-0.454,0.346l-0.286-0.493c-0.332-0.58-0.699-1.371-0.559-1.842  c0.167-0.56,0.883-0.856,1.603-1.112c0.339-0.121,1.17-0.162,2.493-0.195l0.328-0.009c0,0,0.001,0,0.001,0  c0.581,0,3.379,0.487,3.902,0.605c0.516,0.117,1.815,0.765,2.89,1.315l0.427,0.211l0.088,0.312c0.101,0.553-0.601,1.322-0.608,1.329  C47.147,47.6,46.991,47.706,46.735,47.706z M40.15,45.295c1.779,0,4.099,0.35,4.751,0.637c0.128,0.056,0.291,0.134,0.47,0.22  c0.322,0.154,0.946,0.452,1.249,0.533c0.045-0.062,0.09-0.133,0.129-0.199c-1.386-0.708-2.238-1.101-2.534-1.168  c-0.624-0.141-3.266-0.582-3.641-0.582l-0.345,0.01c-1.268,0.031-2.001,0.077-2.18,0.136c-0.725,0.258-0.941,0.407-0.995,0.486  c0.012,0.052,0.11,0.293,0.244,0.573c0.518-0.27,1.416-0.622,2.61-0.644L40.15,45.295z"/><path d="M50.936,89.248c-0.148,0-0.288-0.065-0.383-0.171c-0.164-0.168-0.214-0.405-0.268-0.654  c-0.159-0.734-0.424-1.963-3.364-2.05c-4.197-0.124-15.378-0.249-15.491-0.25c-0.276-0.003-0.498-0.229-0.495-0.505  c0.002-0.277,0.235-0.54,0.505-0.495c0.113,0.001,11.303,0.126,15.509,0.25c2.548,0.075,3.545,0.995,3.978,1.829  c0.432-0.834,1.43-1.754,3.978-1.829c4.206-0.124,15.396-0.249,15.509-0.25c0.001,0,0.003,0,0.005,0c0.273,0,0.497,0.22,0.5,0.495  c0.003,0.276-0.218,0.502-0.495,0.505c-0.112,0.001-11.294,0.126-15.491,0.25c-2.94,0.086-3.205,1.315-3.364,2.05  c-0.045,0.21-0.088,0.412-0.2,0.57C51.284,89.148,51.119,89.248,50.936,89.248z"/><line x1="39.896" y1="85.456" x2="39.896" y2="71.873"/><rect x="39.396" y="71.873" width="1" height="13.583"/><line x1="61.979" y1="85.456" x2="61.979" y2="71.873"/><rect x="61.479" y="71.873" width="1" height="13.583"/><text x="0" y="115" fill="#000000" font-size="5px" font-weight="bold" font-family="'Helvetica Neue', Helvetica, Arial-Unicode, Arial, Sans-serif">Created by Evgen Chekrygin</text><text x="0" y="120" fill="#000000" font-size="5px" font-weight="bold" font-family="'Helvetica Neue', Helvetica, Arial-Unicode, Arial, Sans-serif">from the Noun Project</text></svg>